<?xml version="1.0" encoding="UTF-8" standalone="no" ?>
<!DOCTYPE svg PUBLIC "-//W3C//DTD SVG 1.1//EN" "http://www.w3.org/Graphics/SVG/1.1/DTD/svg11.dtd">
<svg xmlns="http://www.w3.org/2000/svg" xmlns:xlink="http://www.w3.org/1999/xlink" version="1.1" width="329.40000000000003" height="329.40000000000003" xml:space="preserve">
<desc>Created with Fabric.js 1.6.0-rc.1</desc>
<defs></defs>
<g style="stroke: none; stroke-width: 1; stroke-dasharray: none; stroke-linecap: butt; stroke-linejoin: miter; stroke-miterlimit: 10; fill: none; fill-rule: nonzero; opacity: 1;" transform="translate(10 10) scale(0.65 0.65)" >
  <path d="M 475 426.595 V 20.972 C 475 9.624 465.801 0 454.453 0 H 20.972 c -2.38 0 -4.661 0.621 -6.786 1.365 C 258.059 4.279 457.026 190.748 475 426.595 z" style="stroke: none; stroke-width: 1; stroke-dasharray: none; stroke-linecap: butt; stroke-linejoin: miter; stroke-miterlimit: 10; fill: #ffffff; fill-rule: nonzero; opacity: 1;" transform=" matrix(0.9999999789474575 0 0 0.9999999789474575 0 0) " stroke-linecap="round" />
  <path d="M 68.756 200.063 s 63.345 -54.599 155.002 -63.212 c 0 0 53.008 -6.901 83.83 -28.975 C 227.85 42.615 125.505 2.911 13.946 1.578 C 5.935 4.381 0 12.003 0 20.972 v 330.284 c 7 -51.299 24.744 -108.609 68.756 -151.193 z m 285.147 -48.762 c 14.458 48.827 24.313 118 -3.013 184.812 c 0 0 -32.11 110.797 -187.839 138.889 h 291.4 c 11.348 0 20.547 -9.199 20.547 -20.547 v -27.858 c -8.059 -105.761 -52.518 -201.542 -121.095 -275.296 z" style="stroke: none; stroke-width: 1; stroke-dasharray: none; stroke-linecap: butt; stroke-linejoin: miter; stroke-miterlimit: 10; fill: #fffff7; fill-rule: nonzero; opacity: 1;" transform=" matrix(0.9999999789474575 0 0 0.9999999789474575 0 0) " stroke-linecap="round" />
  <path d="M 353.903 151.301 c -11.891 -40.157 -26.896 -66.555 -26.896 -66.555 c -3.396 9.112 -10.461 16.753 -19.367 23.131 a 467.154 467.154 0 0 1 46.263 43.424 z" style="stroke: none; stroke-width: 1; stroke-dasharray: none; stroke-linecap: butt; stroke-linejoin: miter; stroke-miterlimit: 10; fill: #23c234; fill-rule: nonzero; opacity: 1;" transform=" matrix(0.9999999789474575 0 0 0.9999999789474575 0 0) " stroke-linecap="round" />
  <path d="M 350.892 336.111 c 27.324 -66.812 17.471 -135.983 3.013 -184.812 a 467.283 467.283 0 0 0 -46.264 -43.424 c -30.821 22.073 -83.775 28.975 -83.775 28.975 c -91.657 8.613 -155.108 63.212 -155.108 63.212 C 24.744 242.647 7 299.957 0 351.256 v 86.489 c 8 -29.893 33.775 -78.663 118.789 -112.921 c 0 0 146.655 -46.019 195.703 -161.347 c 0 0 -34.412 122.199 -198.791 183.721 c 0 0 -90.111 37.097 -108.354 122.651 a 20.534 20.534 0 0 0 13.624 5.149 h 142.081 c 155.728 -28.09 187.84 -138.887 187.84 -138.887 z" style="stroke: none; stroke-width: 1; stroke-dasharray: none; stroke-linecap: butt; stroke-linejoin: miter; stroke-miterlimit: 10; fill: #23c234; fill-rule: nonzero; opacity: 1;" transform=" matrix(0.9999999789474575 0 0 0.9999999789474575 0 0) " stroke-linecap="round" />
  <path d="M 118.776 324.825 C 33.763 359.082 8 407.854 0 437.745 v 16.708 c 0 2.412 0.579 4.328 1.118 5.973 c 0.006 0.042 0.009 0.086 0.015 0.128 c 0.105 0.339 0.229 0.671 0.354 1.002 l 0.058 0.181 l 0.004 -0.003 c 1.213 3.149 3.241 5.928 5.719 8.117 C 25.51 384.295 115.702 347.2 115.702 347.2 c 164.379 -61.521 198.871 -183.721 198.871 -183.721 c -49.048 115.328 -195.797 161.346 -195.797 161.346 z" style="stroke: none; stroke-width: 1; stroke-dasharray: none; stroke-linecap: butt; stroke-linejoin: miter; stroke-miterlimit: 10; fill: #ffffff; fill-rule: nonzero; opacity: 1;" transform=" matrix(0.9999999789474575 0 0 0.9999999789474575 0 0) " stroke-linecap="round" />
  <path d="M 45.858 378.573 s 26.813 -38.745 88.81 -0.021 c 0 0 59.525 43.13 116.693 24.511 c 0 0 -55.057 26.059 -129.124 -13.992 c 0 0 -49.939 -24.956 -88.547 6.244 l 12.168 -16.742 z m 72.435 -44.056 s 33.916 -9.976 20.91 -63.648 c 0 0 -20.204 -48.334 7.605 -87.715 c 0 0 -33.049 37.231 -19.588 93.745 c 0 0 11.626 36.337 -25.647 62.932 l 16.72 -5.314 z m 90.127 -40.958 s 12.528 -20.537 45.522 -2.54 c 0 0 28.216 21.789 58.998 10.442 c 0 0 -30.292 15.17 -65.071 -3.628 c 0 0 -21.84 -14.038 -45.883 5.782 l 6.434 -10.056 z" style="stroke: none; stroke-width: 1; stroke-dasharray: none; stroke-linecap: butt; stroke-linejoin: miter; stroke-miterlimit: 10; fill: #ffffff; fill-rule: nonzero; opacity: 1;" transform=" matrix(0.9999999789474575 0 0 0.9999999789474575 0 0) " stroke-linecap="round" />
</g>
</svg>